PathFileType	4	(X/Y/Z)	D:\Long Term Storage\D'Arcy Smith\Coord19.trc
DataRate	CameraRate	NumFrames	NumMarkers	Units	OrigDataRate	OrigDataStartFrame	OrigNumFrames
120.00	120.00	      126	4	mm	120.00	1839	      4903
Frame#	Time	M1			M2			M3			M4			
		X1	Y1	Z1	X2	Y2	Z2	X3	Y3	Z3	X4	Y4	Z4	

1839	15.317	680.18317	411.60565	134.90428	970.18286	410.61810	3.24455							
1840	15.325	678.14697	397.84042	152.88399	969.70294	410.51944	3.45941							
1841	15.333	675.52698	384.94785	172.34140	969.03760	409.51987	4.73577							
1842	15.342	672.59210	373.36990	192.67848	968.22101	407.81781	6.47186							
1843	15.350	669.07538	363.14481	213.82664	967.01312	405.07333	9.35444							
1844	15.358	664.94373	354.93948	236.04971	965.92657	401.77551	12.98415							
1845	15.367	660.73096	347.56339	257.17880	964.71399	397.89127	17.67686							
1846	15.375	656.53101	342.36313	278.91498	963.33313	395.09131	20.36206							
1847	15.383	651.37054	338.21097	300.49829	961.86792	388.78403	27.82973							
1848	15.392	645.66431	334.95416	321.81461	960.45050	383.43930	34.80507							
1849	15.400	641.04767	333.74405	342.38852	958.94592	377.42694	44.09234							
1850	15.408	635.77716	333.29565	362.94724	957.21466	373.04050	49.70487							
1851	15.417	630.64740	333.85239	382.60641	955.52051	366.87939	58.76498							
1852	15.425	625.78937	335.46356	401.65146	953.81873	360.52890	68.47028							
1853	15.433	621.27887	338.27341	420.17273	952.81165	353.63025	80.06077							
1854	15.442	616.75806	341.42133	437.04095	951.23041	347.42709	91.05389							
1855	15.450	612.46613	345.43365	453.16681	949.83545	340.88556	104.96275							
1856	15.458	608.59473	350.07452	469.42297	947.96368	334.36169	117.63448							
1857	15.467	605.00269	355.25317	483.04541	946.52789	328.56262	130.36369							
1858	15.475	601.81268	360.47974	494.95694	945.27728	323.27994	143.79785							
1859	15.483	599.13849	365.85626	505.99481	944.04034	318.40692	157.41107							
1860	15.492	596.94940	371.04053	515.19647	942.96753	314.01260	171.94733							
1861	15.500	595.14874	375.77493	523.29669	942.00183	309.72705	186.18695							
1862	15.508	593.80634	380.05341	529.75482	941.08936	306.48624	201.49675							
1863	15.517	593.04187	383.69000	534.81342	939.99030	303.71304	216.37219							
1864	15.525	592.79199	386.59616	538.40912	939.36627	301.18765	231.78308							
1865	15.533	593.08826	388.54205	540.16687	938.82178	299.02420	247.03772							
1866	15.542	593.93976	389.77594	540.91010	938.44794	297.29617	262.59897							
1867	15.550	595.07831	390.21790	540.23535	938.17169	295.92642	277.35446							
1868	15.558	596.61298	389.82864	537.81543	938.24146	294.93857	292.85059							
1869	15.567	598.44684	388.67108	534.13055	938.28650	294.61398	308.79495							
1870	15.575	600.58575	386.77069	528.63519	938.41290	294.89105	323.32510							
1871	15.583	603.04364	384.18655	521.72803	939.06317	295.87335	339.18506							
1872	15.592	605.71320	380.94308	513.11212	939.61877	297.50540	354.32297							
1873	15.600	608.64105	376.98267	502.99240	940.32239	299.70090	368.70584							
1874	15.608	611.92023	372.72971	491.18399	941.16260	302.29355	382.88138							
1875	15.617	615.27771	368.23276	477.84900	942.03033	305.47775	396.81833							
1876	15.625	618.70361	363.91492	463.14777	943.16052	309.25281	410.87347							
1877	15.633	622.32703	359.70627	445.75284	944.17413	313.04828	423.97934							
1878	15.642	625.78210	355.96219	428.67142	945.35553	317.34171	436.25967							
1879	15.650	629.48676	353.02817	410.26407	946.64148	321.79025	448.29977							
1880	15.658	632.60712	350.22583	390.76047	947.65070	326.55264	458.97116							
1881	15.667	635.72192	348.76031	370.69931	949.06171	331.99014	471.00449							
1882	15.675	637.89093	347.84888	352.35236	950.25977	337.00232	480.75165							
1883	15.683	640.72925	348.28741	330.81329	951.70532	342.18945	490.15561							
1884	15.692	643.54907	350.05573	306.26877	952.81934	347.30264	498.64883							
1885	15.700	646.34778	353.36172	284.00406	953.99933	352.42703	506.66638							
1886	15.708	648.10797	357.09821	261.35391	955.19989	357.65588	514.53479							
1887	15.717	650.06256	362.42032	238.95528	956.31812	362.66931	521.32343							
1888	15.725	651.83594	368.93900	216.77309	957.40930	367.41736	528.05048							
1889	15.733	653.39850	376.58374	194.91541	958.22400	371.85782	533.78699							
1890	15.742	654.78308	385.36707	173.46362	959.05774	375.98013	539.05267							
1891	15.750	656.37341	395.64648	152.63219	959.80365	379.88022	544.06934							
1892	15.758	657.16455	405.94318	133.08485	960.33643	383.52609	548.35132							
1893	15.767	657.91583	416.88049	114.65967	960.82898	386.53885	551.31909							
1894	15.775	658.17426	428.74597	97.71989	961.20581	389.50061	554.15930							
1895	15.783	658.55945	440.55875	82.17759	961.48077	392.09082	556.47668							
1896	15.792	658.69482	452.22269	68.30608	961.65955	394.40656	558.40082							
1897	15.800	658.77893	463.58127	56.27464	961.52441	396.14468	559.79828							
1898	15.808	658.82770	474.28568	46.13189	961.49310	397.64648	560.43781							
1899	15.817	658.84149	483.95407	37.88360	961.31940	398.48615	560.48840							
1900	15.825	658.93298	492.06750	31.74861	961.09845	398.80469	559.67920							
1901	15.833	659.46594	499.01331	27.12330	960.75525	398.72891	557.85193							
1902	15.842	660.25665	504.24789	24.29250	960.38336	398.12442	555.77209							
1903	15.850	661.07977	507.89505	22.67198	959.75464	397.17447	552.80573							
1904	15.858	662.35284	510.15707	22.28259	959.12323	395.44510	549.10101							
1905	15.867	664.01038	511.35339	22.90524	958.48547	393.31500	544.53412							
1906	15.875	665.56104	510.69559	24.86891	957.65344	390.24185	539.18420							
1907	15.883	667.57666	509.15036	27.53866	956.95227	386.64328	533.08594							
1908	15.892	669.42102	506.74957	30.53870	955.90576	382.83228	526.98029							
1909	15.900	671.48065	503.56531	33.68171	954.96930	377.98642	519.12915							
1910	15.908	673.42572	499.17773	38.08355	954.06982	372.72610	510.17517							
1911	15.917	675.40448	494.32162	42.53386	953.24988	367.13992	501.01367							
1912	15.925	677.37909	489.08392	46.50020	952.68567	361.29385	490.17096							
1913	15.933	679.28992	482.94080	51.32308	951.44647	354.94333	478.93164							
1914	15.942	681.06696	476.23770	56.45901	950.58099	348.16064	464.60059							
1915	15.950	682.52026	468.90472	61.88649	949.46283	341.70172	452.54489							
1916	15.958	684.15082	461.23923	67.62363	948.90045	335.57639	437.58499							
1917	15.967	685.56982	452.97604	73.67025	948.11884	329.80542	422.04340							
1918	15.975	686.80988	444.07593	80.39293	947.49500	324.07791	404.59375							
1919	15.983	687.89728	434.60507	87.69139	946.85846	319.13327	387.71704							
1920	15.992	688.76288	424.57373	95.96249	946.16229	314.84088	370.21350							
1921	16.000	689.55188	413.38470	105.25513	945.43414	311.27121	352.29193							
1922	16.008	689.78424	402.45926	116.41058	945.12915	308.39755	333.68820							
1923	16.017	689.23615	390.61588	129.56143	944.10950	306.28528	314.62296							
1924	16.025	688.81091	379.59769	143.97264	943.81427	305.07159	294.93622							
1925	16.033	687.68854	368.66849	160.50435	943.21155	304.81042	275.41348							
1926	16.042	686.31207	358.43427	178.54823	942.70337	305.27966	256.03159							
1927	16.050	684.25610	348.96948	198.06303	942.25208	306.81683	236.52794							
1928	16.058	681.69275	340.36731	221.03531	941.72198	309.34735	217.12810							
1929	16.067	678.74329	333.05426	242.52908	941.10492	312.73288	198.60219							
1930	16.075	675.45111	327.37756	265.24051	940.52094	316.68549	180.39987							
1931	16.083	671.68158	322.38956	286.74655	939.78906	321.44455	162.82675							
1932	16.092	667.51440	318.66080	306.82755	939.12024	326.84512	145.44290							
1933	16.100	663.36395	317.30429	329.21176	938.39362	332.81192	128.79715							
1934	16.108	658.71246	316.73923	351.15213	937.60077	338.99924	112.95734							
1935	16.117	654.01959	317.68402	372.99310	937.06714	347.19467	94.68168							
1936	16.125	649.50543	319.98215	393.83365	936.21088	353.83948	80.51936							
1937	16.133	644.55658	323.15811	413.97308	934.82037	360.32224	67.56704							
1938	16.142	639.23346	327.27231	433.31430	934.10883	367.18417	55.68871							
1939	16.150	634.69635	332.20157	451.87482	933.41663	373.99142	44.77790							
1940	16.158	629.62885	338.18762	470.40317	932.61426	380.42941	35.03605							
1941	16.167	624.92780	345.11807	486.79572	931.79852	386.58780	26.38368							
1942	16.175	620.59821	351.88943	501.55228	931.08624	392.40652	18.77190							
1943	16.183	616.41742	359.46469	515.59637	930.07813	397.37372	12.25385							
1944	16.192	612.66345	367.22784	528.18817	929.21265	401.85229	6.79422							
1945	16.200	609.08038	375.24319	539.24237	928.20709	405.62897	2.29332							
1946	16.208	606.08972	382.99844	549.06451	927.39764	408.57401	-1.13387							
1947	16.217	603.42651	390.32092	557.28870	926.57458	410.72940	-3.62832							
1948	16.225	601.30646	397.04868	563.93787	925.82977	411.92697	-5.03816							
1949	16.233	599.54694	403.10867	569.29858	925.18646	412.35101	-5.34757							
1950	16.242	598.42981	407.98209	572.96344	924.38263	411.61136	-4.54504							
1951	16.250	597.73596	411.84656	575.54138	923.77405	410.10260	-2.81334							
1952	16.258	597.62427	414.34125	576.34039	923.29572	407.72400	-0.13675							
1953	16.267	597.91541	415.43326	575.55542	922.87555	404.38474	3.58218							
1954	16.275	598.82227	415.13229	573.36920	922.42310	398.95877	9.24053							
1955	16.283	600.11359	413.42593	569.48865	922.09766	394.10049	15.01866							
1956	16.292	601.87225	410.58218	564.39056	921.76062	388.50238	21.75444							
1957	16.300	603.95288	406.68271	558.06567	921.54022	382.38705	29.43545							
1958	16.308	606.38635	401.92572	549.72821	921.26062	375.50977	38.19622							
1959	16.317	608.99219	396.41153	540.32965	921.20209	368.38913	47.82117							
1960	16.325	611.80438	390.50235	529.43719	921.08325	360.75031	58.41436							
1961	16.333	614.81073	384.18716	517.47510	921.85345	353.63486	70.14362							
1962	16.342	617.57660	377.87860	502.92639	922.17999	345.96423	82.59944							
1963	16.350	620.59351	371.66000	488.59897	922.55359	338.22513	96.25227							
1964	16.358	623.32855	365.57321	472.39313	922.81812	329.79080	113.39572							
